<?xml version="1.0" encoding="UTF-8" standalone="yes"?>
<svg xmlns="http://www.w3.org/2000/svg" xmlns:xlink="http://www.w3.org/1999/xlink" width="250px" height="250px" viewBox="0 0 250 250" version="1.1" fill="#000000">
  <g id="surface368276">
    <path style="fill:none;stroke-width:2;stroke-linecap:butt;stroke-linejoin:miter;stroke:#000000;stroke-opacity:1;stroke-miterlimit:10;" d="M 3 3 L 29 29 " transform="matrix(7.8125,0,0,7.8125,0,0)"/>
    <path style=" stroke:none;fill-rule:nonzero;fill:#000000;fill-opacity:1;" d="M 62.5 101.5625 C 64.304688 101.5625 65.890625 100.851562 67.210938 99.820312 L 56.429688 89.039062 C 55.398438 90.359375 54.6875 91.945312 54.6875 93.75 C 54.6875 98.0625 58.1875 101.5625 62.5 101.5625 Z M 62.5 101.5625 "/>
    <path style=" stroke:none;fill-rule:nonzero;fill:#000000;fill-opacity:1;" d="M 154.890625 187.5 L 39.0625 187.5 L 39.0625 78.125 L 45.515625 78.125 L 29.890625 62.5 L 23.4375 62.5 L 23.4375 203.125 L 170.515625 203.125 Z M 125 85.9375 C 111.390625 85.9375 99.15625 91.804688 90.585938 101.09375 L 101.695312 112.203125 C 107.421875 105.734375 115.695312 101.5625 125 101.5625 C 142.234375 101.5625 156.25 115.578125 156.25 132.8125 C 156.25 142.117188 152.078125 150.390625 145.609375 156.125 L 156.71875 167.234375 C 166.007812 158.65625 171.875 146.421875 171.875 132.8125 C 171.875 106.960938 150.851562 85.9375 125 85.9375 Z M 125 85.9375 "/>
    <path style=" stroke:none;fill-rule:nonzero;fill:#000000;fill-opacity:1;" d="M 125 179.6875 C 131.507812 179.6875 137.703125 178.351562 143.335938 175.945312 L 130.859375 163.46875 C 128.960938 163.835938 127.007812 164.0625 125 164.0625 C 107.765625 164.0625 93.75 150.046875 93.75 132.8125 C 93.75 130.804688 93.976562 128.851562 94.34375 126.953125 L 81.867188 114.476562 C 79.460938 120.109375 78.125 126.304688 78.125 132.8125 C 78.125 158.664062 99.148438 179.6875 125 179.6875 Z M 171.875 62.5 L 160.15625 46.875 L 89.84375 46.875 L 78.125 62.5 L 51.984375 62.5 L 67.609375 78.125 L 85.9375 78.125 L 97.65625 62.5 L 152.34375 62.5 L 164.0625 78.125 L 210.9375 78.125 L 210.9375 187.5 L 176.984375 187.5 L 192.609375 203.125 L 226.5625 203.125 L 226.5625 62.5 Z M 171.875 62.5 "/>
  </g>
</svg>
